<svg width="64" height="64" viewBox="0 0 64 64" fill="none" xmlns="http://www.w3.org/2000/svg">
<path d="M53 36.8979C53 47.2583 40.1976 59.4089 30.9231 53.406C19.9623 59.4089 10 47.2583 10 36.8979C10 26.5374 19.2745 12.1357 30.9231 21.1401C43.7255 11.3854 53 26.5374 53 36.8979Z" fill="url(#paint0_linear_4_63)"/>
<path d="M45.8328 46C51.9269 35.5 48.1299 27.3333 43.6197 25C43.6197 25 45.8328 34.1 43.6197 37.6C41.4066 41.1 45.8328 46 45.8328 46Z" fill="url(#paint1_linear_4_63)"/>
<path d="M32 19C19.6189 15.4827 16.0529 2.74644 24.9251 8.44812C24.9251 8.44812 32 13.2983 32 19Z" fill="url(#paint2_linear_4_63)"/>
<path d="M39.7393 54.6472C39.9908 54.5999 40.2444 54.5508 40.5 54.5C40.2855 54.5858 40.0306 54.634 39.7393 54.6472C7.94213 60.6292 9.38697 38.7521 10.4005 32.5388C10.3853 32.2324 10.4167 31.9446 10.4984 31.6778C10.9037 30.3543 10.667 30.905 10.4005 32.5388C10.7349 39.2612 33.5233 54.9284 39.7393 54.6472Z" fill="#D9D9D9" fill-opacity="0.25"/>
<path d="M34.5 56L31 54L26.5 56H34.5Z" fill="white" stroke="#FBFFFC" stroke-linecap="round"/>
<path d="M32 54.5L35 55.5H37H38.5M38.5 55.5H39.5L40 55H40.5L38.5 55.5Z" stroke="#FBFFFC" stroke-linecap="round"/>
<path d="M29 55L27.7909 55.403M27.7909 55.403L26 56L24 55.5L27.5 55.4105M27.7909 55.403L27.5 55.4105M28.5 55L27.5 55.4105M27 55.5L26 55.5909M17.5 55L14.6017 50.5208M14.5 50.3636L12 46.5L15 55.403L8 36L13 50L9 39.5L12.5 49.5L15.9615 52M14.5 50.3636L15.9615 52M14.5 50.3636L14.6017 50.5208M15.9615 52L21.5 56L26 55.5909M14.6017 50.5208L19 54L23 55.5L26 55.5909" stroke="#FBFFFC" stroke-linecap="round"/>
<defs>
<linearGradient id="paint0_linear_4_63" x1="31.5" y1="18" x2="31.5" y2="55" gradientUnits="userSpaceOnUse">
<stop stop-color="#AE0909"/>
<stop offset="1" stop-color="#480404"/>
</linearGradient>
<linearGradient id="paint1_linear_4_63" x1="46" y1="25" x2="46" y2="46" gradientUnits="userSpaceOnUse">
<stop stop-color="white"/>
<stop offset="1" stop-color="#999999"/>
</linearGradient>
<linearGradient id="paint2_linear_4_63" x1="26" y1="7" x2="26" y2="19" gradientUnits="userSpaceOnUse">
<stop stop-color="#086F27"/>
<stop offset="1" stop-color="#034D13"/>
</linearGradient>
</defs>
</svg>
